<svg version="1.1" xmlns="http://www.w3.org/2000/svg" viewBox="0 0 733.7044218048304 232.6901125403993" width="1467.4088436096608" height="465.3802250807986">
  <!-- svg-source:excalidraw -->
  
  <defs>
    <style class="style-fonts">
      @font-face {
        font-family: "Virgil";
        src: url("https://file%2B.vscode-resource.vscode-cdn.net/c%3A/Users/arnav/.vscode/extensions/pomdtr.excalidraw-editor-3.7.4/public//dist/excalidraw-assets/Virgil.woff2");
      }
      @font-face {
        font-family: "Cascadia";
        src: url("https://file%2B.vscode-resource.vscode-cdn.net/c%3A/Users/arnav/.vscode/extensions/pomdtr.excalidraw-editor-3.7.4/public//dist/excalidraw-assets/Cascadia.woff2");
      }
      @font-face {
        font-family: "Assistant";
        src: url("https://file%2B.vscode-resource.vscode-cdn.net/c%3A/Users/arnav/.vscode/extensions/pomdtr.excalidraw-editor-3.7.4/public//dist/excalidraw-assets/Assistant-Regular.woff2");
      }
    </style>
    
  </defs>
  <rect x="0" y="0" width="733.7044218048304" height="232.6901125403993" fill="#ffffff"></rect><g transform="translate(111.39136362798274 147.6901125403993) rotate(0 35.72999572753906 37.5)"><text x="0" y="0" font-family="Virgil, Segoe UI Emoji" font-size="20px" fill="#1e1e1e" text-anchor="start" style="white-space: pre;" direction="ltr" dominant-baseline="text-before-edge">      {</text><text x="0" y="25" font-family="Virgil, Segoe UI Emoji" font-size="20px" fill="#1e1e1e" text-anchor="start" style="white-space: pre;" direction="ltr" dominant-baseline="text-before-edge"></text><text x="0" y="50" font-family="Virgil, Segoe UI Emoji" font-size="20px" fill="#1e1e1e" text-anchor="start" style="white-space: pre;" direction="ltr" dominant-baseline="text-before-edge">}</text></g><g transform="translate(101.24688853604624 12.663650971866474) rotate(0 45.80995178222656 12.5)"><text x="0" y="0" font-family="Virgil, Segoe UI Emoji" font-size="20px" fill="#e03131" text-anchor="start" style="white-space: pre;" direction="ltr" dominant-baseline="text-before-edge">function()</text></g><g transform="translate(128.00524752777187 13.152593420895215) rotate(0 45.72999572753906 12.5)"><text x="0" y="0" font-family="Virgil, Segoe UI Emoji" font-size="20px" fill="#1e1e1e" text-anchor="start" style="white-space: pre;" direction="ltr" dominant-baseline="text-before-edge">        {</text></g><g transform="translate(140.2485795352813 42.90545113196259) rotate(0 34.559959411621094 12.5)"><text x="0" y="0" font-family="Virgil, Segoe UI Emoji" font-size="20px" fill="#2f9e44" text-anchor="start" style="white-space: pre;" direction="ltr" dominant-baseline="text-before-edge">print(1);</text></g><g transform="translate(139.54896056342358 67.76097604002621) rotate(0 48.38994598388672 12.5)"><text x="0" y="0" font-family="Virgil, Segoe UI Emoji" font-size="20px" fill="#2f9e44" text-anchor="start" style="white-space: pre;" direction="ltr" dominant-baseline="text-before-edge">function();</text></g><g transform="translate(110.16496374540094 92.61650094808982) rotate(0 4.959999084472656 12.5)"><text x="0" y="0" font-family="Virgil, Segoe UI Emoji" font-size="20px" fill="#1e1e1e" text-anchor="start" style="white-space: pre;" direction="ltr" dominant-baseline="text-before-edge">}</text></g><g transform="translate(104.91782145646829 146.77981704571266) rotate(0 27.389976501464844 12.5)"><text x="0" y="0" font-family="Virgil, Segoe UI Emoji" font-size="20px" fill="#e03131" text-anchor="start" style="white-space: pre;" direction="ltr" dominant-baseline="text-before-edge">main()</text></g><g transform="translate(129.40448547148713 171.96610003258928) rotate(0 48.38994598388672 12.5)"><text x="0" y="0" font-family="Virgil, Segoe UI Emoji" font-size="20px" fill="#2f9e44" text-anchor="start" style="white-space: pre;" direction="ltr" dominant-baseline="text-before-edge">function();</text></g><g stroke-linecap="round"><g transform="translate(53.146017538999814 158.5139663435054) rotate(0 21.338378641659332 2.178543527466985)"><path d="M-0.03 0.41 C2.93 1.21, 11.07 4.82, 18.18 4.85 C25.29 4.89, 38.48 1.32, 42.61 0.62 M-0.71 0.14 C2.38 0.8, 12.07 4.2, 19.23 4.14 C26.38 4.08, 38.24 0.52, 42.22 -0.21" stroke="#f08c00" stroke-width="1" fill="none"></path></g><g transform="translate(53.146017538999814 158.5139663435054) rotate(0 21.338378641659332 2.178543527466985)"><path d="M31.97 6.48 C36.35 3.52, 40.37 1.28, 42.22 -0.21 M31.97 6.48 C35.89 3.6, 39.98 1.18, 42.22 -0.21" stroke="#f08c00" stroke-width="1" fill="none"></path></g><g transform="translate(53.146017538999814 158.5139663435054) rotate(0 21.338378641659332 2.178543527466985)"><path d="M30.06 -1.68 C35.18 -1.52, 39.93 -0.63, 42.22 -0.21 M30.06 -1.68 C34.73 -1.44, 39.55 -0.74, 42.22 -0.21" stroke="#f08c00" stroke-width="1" fill="none"></path></g></g><mask></mask><g stroke-linecap="round"><g transform="translate(54.60699290772291 184.0170984309604) rotate(0 31.451985021091858 3.0695474349643064)"><path d="M-0.73 -0.43 C5.96 0.54, 28.8 6.27, 39.47 6.81 C50.14 7.36, 59.23 3.65, 63.29 2.85 M1.09 -1.69 C7.74 -0.56, 28.62 4.6, 38.89 5.04 C49.17 5.49, 58.44 1.3, 62.73 0.98" stroke="#f08c00" stroke-width="1" fill="none"></path></g><g transform="translate(54.60699290772291 184.0170984309604) rotate(0 31.451985021091858 3.0695474349643064)"><path d="M52.36 7.5 C54.43 6.68, 58.11 4.74, 62.73 0.98 M52.36 7.5 C56 5.65, 59.81 2.36, 62.73 0.98" stroke="#f08c00" stroke-width="1" fill="none"></path></g><g transform="translate(54.60699290772291 184.0170984309604) rotate(0 31.451985021091858 3.0695474349643064)"><path d="M50.6 -0.69 C53.17 0.52, 57.29 0.61, 62.73 0.98 M50.6 -0.69 C54.96 0.53, 59.44 0.33, 62.73 0.98" stroke="#f08c00" stroke-width="1" fill="none"></path></g></g><mask></mask><g stroke-linecap="round"><g transform="translate(26.466493017159422 21.69711459212681) rotate(0 31.180046043291142 2.549024389996589)"><path d="M-1.15 -0.57 C4.97 0.6, 26.78 5.89, 37.21 6.1 C47.63 6.32, 57.31 1.57, 61.4 0.69 M0.44 1.74 C6.89 2.68, 28.83 4.48, 39.39 4.51 C49.95 4.54, 60.07 2.34, 63.8 1.9" stroke="#f08c00" stroke-width="1" fill="none"></path></g><g transform="translate(26.466493017159422 21.69711459212681) rotate(0 31.180046043291142 2.549024389996589)"><path d="M53.07 7.8 C56.15 4.87, 61.39 2.94, 63.8 1.9 M53.07 7.8 C55.66 6.09, 59.33 4.13, 63.8 1.9" stroke="#f08c00" stroke-width="1" fill="none"></path></g><g transform="translate(26.466493017159422 21.69711459212681) rotate(0 31.180046043291142 2.549024389996589)"><path d="M51.78 -0.48 C55.23 -0.6, 60.91 0.27, 63.8 1.9 M51.78 -0.48 C54.69 0.15, 58.73 0.53, 63.8 1.9" stroke="#f08c00" stroke-width="1" fill="none"></path></g></g><mask></mask><g stroke-linecap="round"><g transform="translate(69.23725389172657 48.256224066749326) rotate(0 32.182472705453435 2.73713486094573)"><path d="M-1.02 1.01 C5.72 1.98, 28.47 5.23, 39.27 5.26 C50.07 5.29, 59.76 1.87, 63.79 1.19 M0.65 0.49 C7.86 1.7, 31.14 6.36, 41.48 6.69 C51.83 7.02, 59.09 3.2, 62.72 2.46" stroke="#f08c00" stroke-width="1" fill="none"></path></g><g transform="translate(69.23725389172657 48.256224066749326) rotate(0 32.182472705453435 2.73713486094573)"><path d="M52.95 9.85 C56 7.45, 56.75 6.33, 62.72 2.46 M52.95 9.85 C56.04 7.36, 58.93 5.24, 62.72 2.46" stroke="#f08c00" stroke-width="1" fill="none"></path></g><g transform="translate(69.23725389172657 48.256224066749326) rotate(0 32.182472705453435 2.73713486094573)"><path d="M50.48 1.85 C54 1.1, 55.25 1.61, 62.72 2.46 M50.48 1.85 C54.23 1.69, 57.84 1.92, 62.72 2.46" stroke="#f08c00" stroke-width="1" fill="none"></path></g></g><mask></mask><g stroke-linecap="round"><g transform="translate(66.73186517079748 72.31637743585952) rotate(0 30.986500664416084 3.3001996698289418)"><path d="M-0.96 -0.21 C5.42 0.71, 26.92 6.09, 37.26 6.51 C47.59 6.93, 56.88 3.1, 61.06 2.31 M0.74 -1.37 C7.61 0.27, 29.21 7.18, 39.66 8 C50.12 8.83, 59.62 4.49, 63.47 3.57" stroke="#f08c00" stroke-width="1" fill="none"></path></g><g transform="translate(66.73186517079748 72.31637743585952) rotate(0 30.986500664416084 3.3001996698289418)"><path d="M53.73 11 C55.55 8.89, 57.77 6.94, 63.47 3.57 M53.73 11 C56.76 8.59, 59.88 6.77, 63.47 3.57" stroke="#f08c00" stroke-width="1" fill="none"></path></g><g transform="translate(66.73186517079748 72.31637743585952) rotate(0 30.986500664416084 3.3001996698289418)"><path d="M51.23 3 C53.66 2.63, 56.42 2.41, 63.47 3.57 M51.23 3 C55.01 2.94, 58.86 3.46, 63.47 3.57" stroke="#f08c00" stroke-width="1" fill="none"></path></g></g><mask></mask><g transform="translate(374.8178726341311 66.50898773156212) rotate(0 45.80995178222656 12.5)"><text x="0" y="0" font-family="Virgil, Segoe UI Emoji" font-size="20px" fill="#e03131" text-anchor="start" style="white-space: pre;" direction="ltr" dominant-baseline="text-before-edge">function()</text></g><g transform="translate(401.5762316258568 66.99793018059086) rotate(0 45.72999572753906 12.5)"><text x="0" y="0" font-family="Virgil, Segoe UI Emoji" font-size="20px" fill="#1e1e1e" text-anchor="start" style="white-space: pre;" direction="ltr" dominant-baseline="text-before-edge">        {</text></g><g transform="translate(413.81956363336616 96.7507878916582) rotate(0 34.559959411621094 12.5)"><text x="0" y="0" font-family="Virgil, Segoe UI Emoji" font-size="20px" fill="#2f9e44" text-anchor="start" style="white-space: pre;" direction="ltr" dominant-baseline="text-before-edge">print(1);</text></g><g transform="translate(413.11994466150844 121.60631279972182) rotate(0 48.38994598388672 12.5)"><text x="0" y="0" font-family="Virgil, Segoe UI Emoji" font-size="20px" fill="#2f9e44" text-anchor="start" style="white-space: pre;" direction="ltr" dominant-baseline="text-before-edge">function();</text></g><g transform="translate(383.7359478434858 146.46183770778543) rotate(0 4.959999084472656 12.5)"><text x="0" y="0" font-family="Virgil, Segoe UI Emoji" font-size="20px" fill="#1e1e1e" text-anchor="start" style="white-space: pre;" direction="ltr" dominant-baseline="text-before-edge">}</text></g><g stroke-linecap="round"><g transform="translate(298.38098256578166 74.89420085846172) rotate(0 32.00829331802245 2.873149636676942)"><path d="M-0.29 0.21 C6.1 1.4, 28.76 6.29, 39.36 6.63 C49.97 6.97, 59.21 3.18, 63.33 2.26 M1.75 -0.73 C7.85 0.18, 28.07 4.8, 38.14 4.97 C48.22 5.14, 57.84 0.79, 62.2 0.29" stroke="#f08c00" stroke-width="1" fill="none"></path></g><g transform="translate(298.38098256578166 74.89420085846172) rotate(0 32.00829331802245 2.873149636676942)"><path d="M52 7.07 C56.17 3.96, 60.79 1.17, 62.2 0.29 M52 7.07 C55.16 4.17, 59.55 2.31, 62.2 0.29" stroke="#f08c00" stroke-width="1" fill="none"></path></g><g transform="translate(298.38098256578166 74.89420085846172) rotate(0 32.00829331802245 2.873149636676942)"><path d="M50.02 -1.07 C54.92 -1.04, 60.3 -0.7, 62.2 0.29 M50.02 -1.07 C53.9 -1.04, 58.99 0.03, 62.2 0.29" stroke="#f08c00" stroke-width="1" fill="none"></path></g></g><mask></mask><g stroke-linecap="round"><g transform="translate(342.8082379898115 102.11236211811001) rotate(0 32.18247270545339 2.7317342151131925)"><path d="M0.59 -0.99 C7.04 0.1, 28.47 5.81, 39.05 6.38 C49.63 6.94, 59.77 3.09, 64.07 2.4 M-0.57 1.11 C6.2 1.89, 30.53 4.81, 41.15 4.74 C51.77 4.66, 59.11 1.41, 63.15 0.65" stroke="#f08c00" stroke-width="1" fill="none"></path></g><g transform="translate(342.8082379898115 102.11236211811001) rotate(0 32.18247270545339 2.7317342151131925)"><path d="M53.1 7.66 C55.41 4.1, 60.65 2.7, 63.15 0.65 M53.1 7.66 C56.5 4.9, 60.95 2.33, 63.15 0.65" stroke="#f08c00" stroke-width="1" fill="none"></path></g><g transform="translate(342.8082379898115 102.11236211811001) rotate(0 32.18247270545339 2.7317342151131925)"><path d="M50.95 -0.44 C53.95 -1.34, 59.91 -0.09, 63.15 0.65 M50.95 -0.44 C55.23 -0.02, 60.53 0.6, 63.15 0.65" stroke="#f08c00" stroke-width="1" fill="none"></path></g></g><mask></mask><g stroke-linecap="round"><g transform="translate(338.7309125110264 126.52217289833527) rotate(0 31.772469043344046 3.119970318438874)"><path d="M0.4 0.53 C6.89 1.6, 28.17 5.9, 38.85 5.99 C49.54 6.09, 60.31 1.59, 64.51 1.11 M-0.84 -0.24 C5.44 1.06, 26.76 7.04, 37.61 7.4 C48.46 7.76, 59.76 2.99, 64.25 1.94" stroke="#f08c00" stroke-width="1" fill="none"></path></g><g transform="translate(338.7309125110264 126.52217289833527) rotate(0 31.772469043344046 3.119970318438874)"><path d="M54.44 9.27 C57.89 6.51, 59.98 5.91, 64.25 1.94 M54.44 9.27 C57.02 7.57, 58.7 6.32, 64.25 1.94" stroke="#f08c00" stroke-width="1" fill="none"></path></g><g transform="translate(338.7309125110264 126.52217289833527) rotate(0 31.772469043344046 3.119970318438874)"><path d="M52.02 1.25 C56.16 0.84, 58.96 2.6, 64.25 1.94 M52.02 1.25 C55.18 1.31, 57.4 1.85, 64.25 1.94" stroke="#f08c00" stroke-width="1" fill="none"></path></g></g><mask></mask><g transform="translate(40.04931817821853 138.78279219236526) rotate(0 2.7099990844726562 12.5)"><text x="0" y="0" font-family="Virgil, Segoe UI Emoji" font-size="20px" fill="#f08c00" text-anchor="start" style="white-space: pre;" direction="ltr" dominant-baseline="text-before-edge">1</text></g><g transform="translate(33.30355287290419 174.04474719741768) rotate(0 7.1199951171875 12.5)"><text x="0" y="0" font-family="Virgil, Segoe UI Emoji" font-size="20px" fill="#f08c00" text-anchor="start" style="white-space: pre;" direction="ltr" dominant-baseline="text-before-edge">2</text></g><g transform="translate(10 10) rotate(0 2.7099990844726562 12.5)"><text x="0" y="0" font-family="Virgil, Segoe UI Emoji" font-size="20px" fill="#f08c00" text-anchor="start" style="white-space: pre;" direction="ltr" dominant-baseline="text-before-edge">1</text></g><g transform="translate(59.06011131137723 32.690301481511995) rotate(0 7.1199951171875 12.5)"><text x="0" y="0" font-family="Virgil, Segoe UI Emoji" font-size="20px" fill="#f08c00" text-anchor="start" style="white-space: pre;" direction="ltr" dominant-baseline="text-before-edge">2</text></g><g transform="translate(47.71496057062126 60.28661409416168) rotate(0 6.80999755859375 12.5)"><text x="0" y="0" font-family="Virgil, Segoe UI Emoji" font-size="20px" fill="#f08c00" text-anchor="start" style="white-space: pre;" direction="ltr" dominant-baseline="text-before-edge">3</text></g><g stroke-linecap="round"><g transform="translate(533.6794968487852 81.65298023235266) rotate(0 65.80488529925208 -0.5689183167082206)"><path d="M1.05 0.76 C23.02 0.51, 111.07 -1.14, 132.66 -1.55" stroke="#1971c2" stroke-width="1.5" fill="none" stroke-dasharray="1.5 7"></path></g></g><mask></mask><g stroke-linecap="round"><g transform="translate(533.3002179709797 100.23764524482152) rotate(0 65.80488529925208 -0.568918316708249)"><path d="M-1.14 -1.18 C20.76 -1.52, 110.44 -2.34, 132.54 -2.26" stroke="#1971c2" stroke-width="1.5" fill="none" stroke-dasharray="1.5 7"></path></g></g><mask></mask><g stroke-linecap="round"><g transform="translate(531.7831024597579 119.2015891350959) rotate(0 65.80488529925208 -0.5689183167082206)"><path d="M0.41 -1 C22.45 -1.21, 109.47 -1.88, 131.25 -1.72" stroke="#1971c2" stroke-width="1.5" fill="none" stroke-dasharray="1.5 7"></path></g></g><mask></mask><g stroke-linecap="round" transform="translate(686.6690403011362 87.64302241280143) rotate(0 9.258845375923613 8.394686474170726)"><path d="M8.02 -0.32 C9.82 -0.58, 12.51 0.31, 14.25 1.34 C16 2.36, 17.9 4.08, 18.49 5.8 C19.08 7.53, 18.73 9.96, 17.79 11.7 C16.86 13.44, 14.64 15.44, 12.89 16.23 C11.15 17.02, 9.28 16.89, 7.34 16.46 C5.41 16.03, 2.45 15.16, 1.3 13.66 C0.15 12.15, 0.23 9.3, 0.44 7.43 C0.64 5.57, 1.12 3.67, 2.53 2.49 C3.93 1.31, 7.78 0.68, 8.86 0.37 C9.94 0.07, 9.03 0.49, 8.99 0.65 M9.21 0.12 C11.13 -0.2, 14.14 -0.06, 15.69 1.11 C17.24 2.28, 18.25 5.19, 18.52 7.13 C18.8 9.08, 18.41 11.19, 17.34 12.77 C16.27 14.35, 13.89 15.93, 12.1 16.62 C10.31 17.3, 8.38 17.42, 6.61 16.9 C4.84 16.38, 2.67 15.18, 1.47 13.52 C0.28 11.85, -0.78 8.92, -0.56 6.93 C-0.33 4.95, 1.16 2.65, 2.8 1.59 C4.44 0.53, 8.13 0.91, 9.28 0.56 C10.42 0.2, 9.7 -0.55, 9.68 -0.53" stroke="#1e1e1e" stroke-width="1" fill="none"></path></g><g stroke-linecap="round" transform="translate(705.1867310529833 87.64302241280143) rotate(0 9.258845375923613 8.394686474170726)"><path d="M8.06 0.08 C9.84 -0.36, 12.35 0.14, 13.93 1 C15.5 1.87, 16.77 3.59, 17.49 5.28 C18.21 6.97, 18.88 9.45, 18.25 11.15 C17.63 12.84, 15.46 14.45, 13.75 15.43 C12.05 16.42, 9.86 17.33, 8.01 17.06 C6.16 16.79, 3.98 15.19, 2.65 13.79 C1.32 12.4, 0.13 10.45, 0.01 8.7 C-0.1 6.96, 0.56 4.83, 1.93 3.32 C3.31 1.81, 7.17 0.18, 8.28 -0.35 C9.4 -0.87, 8.61 -0.02, 8.61 0.18 M10.29 -0.19 C12.22 -0.17, 14.96 0.76, 16.41 2.14 C17.87 3.53, 19.01 6.16, 19.04 8.1 C19.07 10.04, 17.76 12.26, 16.58 13.79 C15.41 15.32, 13.76 16.9, 11.99 17.27 C10.22 17.63, 7.83 16.86, 5.97 15.98 C4.1 15.09, 1.78 13.55, 0.79 11.95 C-0.2 10.34, -0.43 8.07, 0.02 6.36 C0.47 4.64, 1.86 2.8, 3.49 1.65 C5.11 0.51, 8.65 -0.3, 9.78 -0.51 C10.91 -0.73, 10.18 0.07, 10.27 0.37" stroke="#1e1e1e" stroke-width="1" fill="none"></path></g><g transform="translate(280.418622178375 58.89317899471405) rotate(0 2.7099990844726562 12.5)"><text x="0" y="0" font-family="Virgil, Segoe UI Emoji" font-size="20px" fill="#f08c00" text-anchor="start" style="white-space: pre;" direction="ltr" dominant-baseline="text-before-edge">1</text></g><g transform="translate(327.0986980098706 85.02008710935706) rotate(0 7.1199951171875 12.5)"><text x="0" y="0" font-family="Virgil, Segoe UI Emoji" font-size="20px" fill="#f08c00" text-anchor="start" style="white-space: pre;" direction="ltr" dominant-baseline="text-before-edge">2</text></g><g transform="translate(321.5249576120801 117.06909439665253) rotate(0 6.80999755859375 12.5)"><text x="0" y="0" font-family="Virgil, Segoe UI Emoji" font-size="20px" fill="#f08c00" text-anchor="start" style="white-space: pre;" direction="ltr" dominant-baseline="text-before-edge">3</text></g><g stroke-linecap="round"><g transform="translate(243.96742584920025 88.57481702548557) rotate(0 26.126908114643044 5.051202235497669)"><path d="M1.14 -0.51 C3.67 2.23, 7.49 17.84, 16.05 16.87 C24.62 15.91, 46.44 -2.45, 52.52 -6.33 M0.28 -1.83 C2.6 1.06, 6.7 19.39, 15.3 18.31 C23.9 17.22, 45.63 -3.85, 51.9 -8.33" stroke="#e03131" stroke-width="1" fill="none"></path></g><g transform="translate(243.96742584920025 88.57481702548557) rotate(0 26.126908114643044 5.051202235497669)"><path d="M40.88 10.57 C44.09 4, 48.76 -3.28, 51.9 -8.33 M40.88 10.57 C45.53 3.12, 48.68 -2.46, 51.9 -8.33" stroke="#e03131" stroke-width="1" fill="none"></path></g><g transform="translate(243.96742584920025 88.57481702548557) rotate(0 26.126908114643044 5.051202235497669)"><path d="M31.3 -0.93 C38.15 -3.28, 46.41 -6.24, 51.9 -8.33 M31.3 -0.93 C39.37 -4.37, 45.9 -5.88, 51.9 -8.33" stroke="#e03131" stroke-width="1" fill="none"></path></g></g><mask></mask></svg>