<svg version="1.1" xmlns="http://www.w3.org/2000/svg" viewBox="0 0 936.7196655273438 469.66861072234565" width="1873.4393310546875" height="939.3372214446913" filter="invert(93%) hue-rotate(180deg)">
  <!-- svg-source:excalidraw -->
  
  <defs>
    <style class="style-fonts">
      @font-face {
        font-family: "Virgil";
        src: url("https://file%2B.vscode-resource.vscode-cdn.net/c%3A/Users/arnav/.vscode/extensions/pomdtr.excalidraw-editor-3.7.4/public//dist/excalidraw-assets/Virgil.woff2");
      }
      @font-face {
        font-family: "Cascadia";
        src: url("https://file%2B.vscode-resource.vscode-cdn.net/c%3A/Users/arnav/.vscode/extensions/pomdtr.excalidraw-editor-3.7.4/public//dist/excalidraw-assets/Cascadia.woff2");
      }
      @font-face {
        font-family: "Assistant";
        src: url("https://file%2B.vscode-resource.vscode-cdn.net/c%3A/Users/arnav/.vscode/extensions/pomdtr.excalidraw-editor-3.7.4/public//dist/excalidraw-assets/Assistant-Regular.woff2");
      }
    </style>
    
  </defs>
  <rect x="0" y="0" width="936.7196655273438" height="469.66861072234565" fill="#ffffff"></rect><g stroke-linecap="round"><g transform="translate(367 119.54660272953791) rotate(0 2.25 170)"><path d="M-0.54 -0.67 C0.19 55.9, 2.68 282.22, 3.66 339.07 M1.38 1.59 C2.54 58.32, 5.33 284, 5.94 340.12" stroke="#1e1e1e" stroke-width="2" fill="none"></path></g></g><mask></mask><g stroke-linecap="round"><g transform="translate(371.5 457.0466027295379) rotate(0 57.5 0.25)"><path d="M-1.17 1.19 C18.16 1.27, 96.17 -0.05, 115.67 -0.3 M0.41 0.77 C19.68 1.05, 95.89 0.85, 115.08 0.81" stroke="#1e1e1e" stroke-width="2" fill="none"></path></g></g><mask></mask><g stroke-linecap="round"><g transform="translate(484.5 118.04660272953791) rotate(0 2.25 170)"><path d="M0.67 0.15 C1.28 56.88, 3.37 283.96, 3.99 340.74 M-0.43 -0.81 C-0.06 55.54, 2.11 282.38, 2.78 339.01" stroke="#1e1e1e" stroke-width="2" fill="none"></path></g></g><mask></mask><g stroke-linecap="round" transform="translate(375.5 405.0466027295379) rotate(0 54.5 24)"><path d="M12 0 C32.95 0.54, 58.05 1.63, 97 0 M12 0 C31.44 1.22, 50.88 -0.27, 97 0 M97 0 C106.15 -1.89, 109.87 4.2, 109 12 M97 0 C104.7 0.21, 107.17 5.1, 109 12 M109 12 C109.92 20.02, 107.45 24.72, 109 36 M109 12 C109.14 20.08, 108.57 28.16, 109 36 M109 36 C110.48 45.94, 105.11 47.53, 97 48 M109 36 C108.72 46.05, 106.04 49.5, 97 48 M97 48 C73.61 48.37, 46.93 48.49, 12 48 M97 48 C73.72 47.13, 50.77 47.51, 12 48 M12 48 C2.94 48.97, 0.87 43.92, 0 36 M12 48 C5.02 49.09, 1.27 45.79, 0 36 M0 36 C1.69 29.03, -1.82 24.51, 0 12 M0 36 C0.69 29.45, -0.33 21.68, 0 12 M0 12 C0.58 3.35, 3.03 -0.02, 12 0 M0 12 C2.02 3.8, 4.38 -1.78, 12 0" stroke="#2f9e44" stroke-width="2" fill="none"></path></g><g transform="translate(400.5 418.5466027295379) rotate(0 30.3399658203125 12.5)"><text x="0" y="0" font-family="Virgil, Segoe UI Emoji" font-size="20px" fill="#2f9e44" text-anchor="start" style="white-space: pre;" direction="ltr" dominant-baseline="text-before-edge">func();</text></g><g stroke-linecap="round" transform="translate(374 350.5466027295379) rotate(0 54.5 24)"><path d="M12 0 C41.37 -2.05, 69.87 -1.9, 97 0 M12 0 C40.47 -0.27, 69.44 0.23, 97 0 M97 0 C105.19 -1.1, 108.56 5.7, 109 12 M97 0 C106.99 0.77, 108.18 2.02, 109 12 M109 12 C110.8 21.2, 110.92 28.86, 109 36 M109 12 C109.18 19.47, 109.59 26.67, 109 36 M109 36 C110.99 44.94, 104.41 49.43, 97 48 M109 36 C110.79 43.7, 102.71 49.48, 97 48 M97 48 C78.38 49.35, 60.31 46.49, 12 48 M97 48 C71.3 47.03, 45.87 47.11, 12 48 M12 48 C2.7 46.07, -1.17 42.08, 0 36 M12 48 C2.49 46.98, -2.23 43.27, 0 36 M0 36 C0.94 29.73, 0.54 24.85, 0 12 M0 36 C-0.63 31.24, -0.57 26.49, 0 12 M0 12 C1.32 3.66, 4.1 -0.06, 12 0 M0 12 C2.02 3.96, 3.4 -1.7, 12 0" stroke="#2f9e44" stroke-width="2" fill="none"></path></g><g transform="translate(399 364.0466027295379) rotate(0 30.3399658203125 12.5)"><text x="0" y="0" font-family="Virgil, Segoe UI Emoji" font-size="20px" fill="#2f9e44" text-anchor="start" style="white-space: pre;" direction="ltr" dominant-baseline="text-before-edge">func();</text></g><g stroke-linecap="round" transform="translate(374.5 296.0466027295379) rotate(0 54.5 24)"><path d="M12 0 C31.01 -1.53, 46.76 -0.77, 97 0 M12 0 C39.15 0.52, 66.6 -0.39, 97 0 M97 0 C104.31 -0.81, 108.56 5.74, 109 12 M97 0 C103.43 -0.23, 106.99 4.2, 109 12 M109 12 C107.55 17.56, 108.92 26.4, 109 36 M109 12 C108.12 20.82, 109.31 29.83, 109 36 M109 36 C109.37 45.67, 105.86 46.78, 97 48 M109 36 C111.08 44.06, 104.96 50.07, 97 48 M97 48 C73.86 49.21, 51.3 49.05, 12 48 M97 48 C73.72 48.81, 52.28 47.76, 12 48 M12 48 C2.7 49.54, -1.34 43.44, 0 36 M12 48 C5.14 48.87, 1.43 44.54, 0 36 M0 36 C0.37 28.51, -2.05 21.61, 0 12 M0 36 C-0.19 28.61, 0.81 21.5, 0 12 M0 12 C1.06 5.66, 2.23 -1.63, 12 0 M0 12 C-0.16 3.29, 1.88 1.82, 12 0" stroke="#2f9e44" stroke-width="2" fill="none"></path></g><g transform="translate(399.5 309.5466027295379) rotate(0 30.3399658203125 12.5)"><text x="0" y="0" font-family="Virgil, Segoe UI Emoji" font-size="20px" fill="#2f9e44" text-anchor="start" style="white-space: pre;" direction="ltr" dominant-baseline="text-before-edge">func();</text></g><g stroke-linecap="round" transform="translate(373.5 245.0466027295379) rotate(0 54.5 24)"><path d="M12 0 C36.09 -1.29, 63.15 -1.08, 97 0 M12 0 C33.66 -0.44, 56.04 1.18, 97 0 M97 0 C103.06 -0.68, 109.81 4.23, 109 12 M97 0 C104.04 1.8, 110.68 1.8, 109 12 M109 12 C109.83 20.32, 107.9 26.56, 109 36 M109 12 C108.3 17.74, 109.67 22.27, 109 36 M109 36 C107.4 44.74, 106.79 49.15, 97 48 M109 36 C111.14 46.08, 103.59 46.42, 97 48 M97 48 C76.68 49.34, 56.07 49.25, 12 48 M97 48 C77 48.81, 55.24 48.11, 12 48 M12 48 C4.06 46.09, 0.21 42.14, 0 36 M12 48 C4.18 50.17, -1.09 41.95, 0 36 M0 36 C1.76 25.56, 1.11 17.8, 0 12 M0 36 C-0.13 29.2, -0.86 22.18, 0 12 M0 12 C1.78 5.59, 2.42 1.04, 12 0 M0 12 C1.19 3.09, 5.16 -0.29, 12 0" stroke="#2f9e44" stroke-width="2" fill="none"></path></g><g transform="translate(398.5 258.5466027295379) rotate(0 30.3399658203125 12.5)"><text x="0" y="0" font-family="Virgil, Segoe UI Emoji" font-size="20px" fill="#2f9e44" text-anchor="start" style="white-space: pre;" direction="ltr" dominant-baseline="text-before-edge">func();</text></g><g stroke-linecap="round" transform="translate(374 189.5466027295379) rotate(0 54.5 24)"><path d="M12 0 C42.73 -0.13, 69.93 0.69, 97 0 M12 0 C29.71 -0.12, 50.27 1.23, 97 0 M97 0 C106.38 0.97, 107.21 4.76, 109 12 M97 0 C103.74 -1.61, 108.77 6.09, 109 12 M109 12 C110.23 19.54, 109.04 29.84, 109 36 M109 12 C108.36 19.62, 109.57 27.33, 109 36 M109 36 C109.36 45.58, 104.93 49.49, 97 48 M109 36 C106.85 42.51, 103.15 46.84, 97 48 M97 48 C66.39 47.04, 31.64 48.95, 12 48 M97 48 C68.95 47.94, 38.84 48.07, 12 48 M12 48 C4.28 46.24, -0.38 42.62, 0 36 M12 48 C3.2 46.22, -0.41 45.32, 0 36 M0 36 C-1.83 27.2, 0.71 17.9, 0 12 M0 36 C0.66 27.2, -0.47 16.83, 0 12 M0 12 C1.4 4.24, 3.61 -1.33, 12 0 M0 12 C0.86 2.45, 6.12 -1.79, 12 0" stroke="#2f9e44" stroke-width="2" fill="none"></path></g><g transform="translate(399 203.0466027295379) rotate(0 30.3399658203125 12.5)"><text x="0" y="0" font-family="Virgil, Segoe UI Emoji" font-size="20px" fill="#2f9e44" text-anchor="start" style="white-space: pre;" direction="ltr" dominant-baseline="text-before-edge">func();</text></g><g stroke-linecap="round" transform="translate(372 135.5466027295379) rotate(0 54.5 24)"><path d="M12 0 C32.22 0.3, 57.14 -0.89, 97 0 M12 0 C43.26 -0.29, 72.75 -0.7, 97 0 M97 0 C106.77 -1.2, 110.43 5.49, 109 12 M97 0 C107.27 1.14, 109.95 3.24, 109 12 M109 12 C109.84 19.04, 108 28.84, 109 36 M109 12 C108.7 19.71, 110.18 28.14, 109 36 M109 36 C108.78 43.01, 105.63 46.99, 97 48 M109 36 C106.97 43.56, 105.88 48.13, 97 48 M97 48 C63.91 46.36, 34.93 46.89, 12 48 M97 48 C67.83 48.02, 39.6 48.3, 12 48 M12 48 C3 49.09, -0.64 43.91, 0 36 M12 48 C4.76 49.75, -1.1 44.19, 0 36 M0 36 C-2.15 27.44, 0.97 20.4, 0 12 M0 36 C-0.9 28.4, -0.67 21.52, 0 12 M0 12 C-0.67 4.63, 4.52 -0.96, 12 0 M0 12 C-2 2.43, 3.79 0.56, 12 0" stroke="#2f9e44" stroke-width="2" fill="none"></path></g><g transform="translate(397 149.0466027295379) rotate(0 30.3399658203125 12.5)"><text x="0" y="0" font-family="Virgil, Segoe UI Emoji" font-size="20px" fill="#2f9e44" text-anchor="start" style="white-space: pre;" direction="ltr" dominant-baseline="text-before-edge">func();</text></g><g stroke-linecap="round" transform="translate(371.5 80.54660272953791) rotate(0 54.5 24)"><path d="M12 0 C32.56 -1.23, 50.34 -1.64, 97 0 M12 0 C35.9 0.23, 61.94 0.44, 97 0 M97 0 C105.33 0.31, 107.15 2.23, 109 12 M97 0 C107.28 0.57, 108.61 2.2, 109 12 M109 12 C107.53 16.8, 110.22 24.48, 109 36 M109 12 C108.93 18.57, 108.63 27.12, 109 36 M109 36 C109.84 45.04, 106.43 47.82, 97 48 M109 36 C106.76 44.15, 107.06 46.3, 97 48 M97 48 C72.28 46.03, 47.57 49.64, 12 48 M97 48 C79.75 47.49, 61.36 46.78, 12 48 M12 48 C3.97 47.27, 0.35 45, 0 36 M12 48 C6.05 49.43, -1.81 42.88, 0 36 M0 36 C0.91 25.2, -1.4 18.19, 0 12 M0 36 C-0.58 27.95, 1.04 21.23, 0 12 M0 12 C-0.63 4.81, 5.33 1.08, 12 0 M0 12 C0.35 3.73, 3.24 1.76, 12 0" stroke="#2f9e44" stroke-width="2" fill="none"></path></g><g transform="translate(396.5 94.04660272953791) rotate(0 30.3399658203125 12.5)"><text x="0" y="0" font-family="Virgil, Segoe UI Emoji" font-size="20px" fill="#2f9e44" text-anchor="start" style="white-space: pre;" direction="ltr" dominant-baseline="text-before-edge">func();</text></g><g stroke-linecap="round" transform="translate(306 33.04660272953791) rotate(331.5787907754732 54.5 24)"><path d="M12 0 C38.14 1.18, 63.41 0.44, 97 0 M12 0 C36.27 -0.65, 60.11 -0.77, 97 0 M97 0 C103.97 -1.98, 108.76 3.07, 109 12 M97 0 C103.08 -1.51, 107.12 3.38, 109 12 M109 12 C107.85 18.73, 107.7 28.61, 109 36 M109 12 C109.28 20.26, 108.9 29.36, 109 36 M109 36 C108.15 45.07, 104.79 48.11, 97 48 M109 36 C107.96 43.67, 105.08 48.8, 97 48 M97 48 C71.51 48.03, 45.78 48.2, 12 48 M97 48 C78.61 48.61, 59.92 47.92, 12 48 M12 48 C2.13 47.12, 0.69 45.08, 0 36 M12 48 C4.55 50.04, 1.93 43.29, 0 36 M0 36 C-0.45 30.56, 0.27 27.14, 0 12 M0 36 C-0.92 27.48, 0.41 17.63, 0 12 M0 12 C-1.15 4.68, 5.71 1.48, 12 0 M0 12 C0.01 4.42, 2.7 -2.17, 12 0" stroke="#e03131" stroke-width="2" fill="none"></path></g><g transform="translate(331.85066057132184 45.90576606895034) rotate(331.5787907754732 30.3399658203125 12.5)"><text x="0" y="0" font-family="Virgil, Segoe UI Emoji" font-size="20px" fill="#e03131" text-anchor="start" style="white-space: pre;" direction="ltr" dominant-baseline="text-before-edge">func();</text></g><g stroke-linecap="round" transform="translate(244 111.04660272953791) rotate(376.86670684203017 54.5 24)"><path d="M12 0 C33.81 -0.99, 54.28 -2.03, 97 0 M12 0 C31.42 1.04, 49.54 0.65, 97 0 M97 0 C106.39 -1.44, 107.85 2.29, 109 12 M97 0 C103.24 0.55, 108.16 2.96, 109 12 M109 12 C108.35 15.81, 107.77 25.04, 109 36 M109 12 C108.76 21.77, 108.55 30.13, 109 36 M109 36 C107.98 44.37, 104.51 47.87, 97 48 M109 36 C110.19 45.68, 104.73 49.65, 97 48 M97 48 C73.97 45.96, 47.82 46.49, 12 48 M97 48 C71.34 47.57, 45.53 48.51, 12 48 M12 48 C3.03 46.6, 1.19 43.52, 0 36 M12 48 C5.7 47.64, -0.99 45.03, 0 36 M0 36 C1.33 29.24, -0.51 18.29, 0 12 M0 36 C-0.73 28.86, 0.02 21.22, 0 12 M0 12 C0.15 5.18, 5.67 -0.74, 12 0 M0 12 C-1.47 4.36, 5.58 0.99, 12 0" stroke="#e03131" stroke-width="2" fill="none"></path></g><g transform="translate(268.38357431014356 124.70428027480943) rotate(376.86670684203017 30.3399658203125 12.5)"><text x="0" y="0" font-family="Virgil, Segoe UI Emoji" font-size="20px" fill="#e03131" text-anchor="start" style="white-space: pre;" direction="ltr" dominant-baseline="text-before-edge">func();</text></g><g transform="translate(517.5 397.7966027295379) rotate(0 204.60983276367188 25)"><text x="0" y="0" font-family="Virgil, Segoe UI Emoji" font-size="20px" fill="#1e1e1e" text-anchor="start" style="white-space: pre;" direction="ltr" dominant-baseline="text-before-edge">func() is a function that has an improper</text><text x="0" y="25" font-family="Virgil, Segoe UI Emoji" font-size="20px" fill="#1e1e1e" text-anchor="start" style="white-space: pre;" direction="ltr" dominant-baseline="text-before-edge">stopping condition.</text></g><g transform="translate(10 33.42160272953791) rotate(0 137.75987243652344 12.5)"><text x="0" y="0" font-family="Virgil, Segoe UI Emoji" font-size="20px" fill="#1e1e1e" text-anchor="start" style="white-space: pre;" direction="ltr" dominant-baseline="text-before-edge">stack overflow visualization</text></g></svg>